#!OML:ASF H:\Terrain\Patient Classification 1\Terrain2\Thursday\justin.ASF
:FULLY-SPECIFIED
:DEGREES
3606
root 20.5057 17.5323 -21.9719 1517.11 -85.3319 -74.6615
lowerback 3.75696 0.843817 3.48406
upperback 1.51826 1.19107 3.6594
thorax -0.551 0.559715 1.75671
lowerneck -12.8097 -1.47874 -9.14166
upperneck 37.8386 -2.97912 4.69886
head 15.7171 -2.45011 3.01264
rclavicle -1.11319e-014 1.59028e-015
rhumerus -27.471 -10.7353 -77.2597
rradius 32.0009
rwrist -13.6499
rhand -22.0509 12.3923
rfingers 7.12502
rthumb 4.35966 -17.5429
lclavicle -1.11319e-014 1.59028e-015
lhumerus -37.992 1.60263 86.8427
lradius 35.8929
lwrist 4.33356
lhand -16.7669 19.4974
lfingers 7.12502
lthumb 9.46022 49.2651
rfemur -8.3427 1.00112 27.368
rtibia 27.0343
rfoot -17.9532 2.01799
rtoes 19
lfemur -14.6915 3.91419 -14.5759
ltibia 30.4776
lfoot -13.4521 -11.5551
ltoes 12.5059
3607
root 20.4615 17.524 -21.9572 1515.81 -85.4016 -73.3182
lowerback 3.57206 0.761475 3.21856
upperback 1.47939 1.06492 3.72801
thorax -0.493401 0.49659 1.98316
lowerneck -12.7663 -1.32331 -9.05716
upperneck 37.8261 -2.75709 4.65975
head 15.674 -2.35113 3.01721
rclavicle 2.48481e-015 -3.18055e-014
rhumerus -27.6323 -10.7863 -77.1162
rradius 31.871
rwrist -13.7526
rhand -22.193 12.1855
rfingers 7.12502
rthumb 4.22236 -17.7524
lclavicle 2.48481e-015 -3.18055e-014
lhumerus -38.1812 1.48579 86.9123
lradius 35.8045
lwrist 4.64896
lhand -16.5415 19.6547
lfingers 7.12502
lthumb 9.67774 49.4124
rfemur -8.40278 1.01612 27.2956
rtibia 27.3516
rfoot -18.2397 1.47034
rtoes 16.766
lfemur -14.5912 4.38794 -14.7273
ltibia 30.4878
lfoot -13.7101 -11.9914
ltoes 12.0051
3608
root 20.4192 17.5113 -21.9389 1514.25 -85.465 -71.7468
lowerback 3.36171 0.630353 2.98003
upperback 1.51101 0.868881 3.80869
thorax -0.346068 0.398417 2.20995
lowerneck -12.8428 -1.25725 -8.98693
upperneck 37.7812 -2.55585 4.38817
head 15.6457 -2.28925 2.91891
rclavicle -1.33186e-014 -9.54166e-015
rhumerus -27.6416 -10.9007 -76.9541
rradius 31.6486
rwrist -13.6537
rhand -22.3405 12.2772
rfingers 7.12502
rthumb 4.07999 -17.6634
lclavicle -1.33186e-014 -9.54166e-015
lhumerus -38.1338 2.18633 86.7481
lradius 35.4651
lwrist 4.19287
lhand -16.4507 20.3206
lfingers 7.12502
lthumb 9.76537 50.0742
rfemur -8.47756 1.09624 27.1974
rtibia 27.7127
rfoot -18.4564 0.787838
rtoes 14.0389
lfemur -14.4971 4.87853 -14.8919
ltibia 30.4338
lfoot -13.7208 -12.6576
ltoes 13.034
3609
root 20.3799 17.5071 -21.9201 1512.23 -85.505 -69.7659
lowerback 3.25617 0.539165 2.91031
upperback 1.52116 0.740557 3.76666
thorax -0.2749 0.335381 2.21112
lowerneck -12.8597 -1.26971 -8.95165
upperneck 37.801 -2.5664 4.331
head 15.6595 -2.2982 2.88598
rclavicle -2.88238e-015 -3.73715e-014
rhumerus -27.782 -11.3707 -76.8419
rradius 31.457
rwrist -13.4094
rhand -22.1463 12.307
rfingers 7.12502
rthumb 4.2675 -17.63
lclavicle -2.88238e-015 -3.73715e-014
lhumerus -38.1462 2.38904 86.5979
lradius 35.1959
lwrist 3.92148
lhand -16.5899 20.5547
lfingers 7.12502
lthumb 9.63106 50.3146
rfemur -8.48883 1.20527 27.0377
rtibia 28.1539
rfoot -18.6313 0.526983
rtoes 13.8433
lfemur -14.2535 4.2093 -15.0342
ltibia 30.3153
lfoot -13.7659 -12.4016
ltoes 14.5731
3610
root 20.3407 17.503 -21.9044 1510.95 -85.4805 -68.5204
lowerback 3.18175 0.512799 2.9309
upperback 1.48683 0.706531 3.6735
thorax -0.266628 0.320201 2.10498
lowerneck -12.7234 -1.30397 -9.00987
upperneck 37.7635 -2.73457 4.62593
head 15.628 -2.3404 2.99543
rclavicle -2.38542e-015 -4.77083e-015
rhumerus -28.0943 -11.8824 -76.8241
rradius 31.331
rwrist -13.3225
rhand -21.8041 12.0973
rfingers 7.12502
rthumb 4.59791 -17.8328
lclavicle -2.38542e-015 -4.77083e-015
lhumerus -38.1978 2.17383 86.4557
lradius 34.9205
lwrist 3.95059
lhand -16.5239 20.5625
lfingers 7.12502
lthumb 9.69467 50.3194
rfemur -8.54265 1.49948 26.9852
rtibia 28.7289
rfoot -18.9012 0.323901
rtoes 14.6542
lfemur -13.8515 2.59953 -15.0857
ltibia 30.0597
lfoot -13.9587 -11.2073
ltoes 14.693
3611
root 20.3029 17.4905 -21.8878 1509.28 -85.7953 -66.7929
lowerback 3.04212 0.482486 2.4808
upperback 1.41994 0.655854 3.58799
thorax -0.261213 0.296193 2.27136
lowerneck -12.6004 -1.32364 -9.05067
upperneck 37.7356 -2.78459 4.65964
head 15.5906 -2.36584 3.00777
rclavicle 3.97569e-015 4.77083e-015
rhumerus -28.4432 -12.0311 -76.7519
rradius 31.319
rwrist -13.4637
rhand -21.6729 11.9705
rfingers 7.12502
rthumb 4.72467 -17.9568
lclavicle 3.97569e-015 4.77083e-015
lhumerus -38.2812 2.58235 86.2207
lradius 34.6554
lwrist 3.74231
lhand -16.263 20.6742
lfingers 7.12502
lthumb 9.94644 50.4192
rfemur -8.80352 1.79379 26.5772
rtibia 29.4479
rfoot -19.2193 0.148853
rtoes 15.1238
lfemur -13.5197 1.96373 -15.5112
ltibia 29.6735
lfoot -14.011 -10.8518
ltoes 15.019
3612
root 20.2659 17.4801 -21.8696 1506.64 -86.4138 -64.1549
lowerback 2.98424 0.507147 1.83539
upperback 1.3809 0.679894 3.36602
thorax -0.275166 0.310937 2.40394
lowerneck -12.4575 -1.36472 -8.91369
upperneck 37.7109 -2.85659 4.52285
head 15.5462 -2.39788 2.91076
rclavicle 2.98177e-015 -3.18055e-015
rhumerus -28.7976 -12.4087 -76.6533
rradius 31.2874
rwrist -13.4999
rhand -21.6892 12.0746
rfingers 7.12502
rthumb 4.70888 -17.8531
lclavicle 2.98177e-015 -3.18055e-015
lhumerus -38.4376 3.01624 85.8807
lradius 34.5708
lwrist 3.40646
lhand -16.1462 20.8561
lfingers 7.12502
lthumb 10.0591 50.5957
rfemur -9.05136 1.88596 25.8394
rtibia 30.2301
rfoot -19.5197 0.01636
rtoes 14.8727
lfemur -13.1164 1.64636 -16.2765
ltibia 29.32
lfoot -13.9881 -10.715
ltoes 17.1175
3613
root 20.2271 17.479 -21.8533 1503.3 -86.8979 -60.9313
lowerback 2.99797 0.599667 1.42655
upperback 1.39304 0.800111 3.07303
thorax -0.27581 0.374298 2.32747
lowerneck -12.2885 -1.41803 -8.69256
upperneck 37.6135 -3.05277 4.62247
head 15.4712 -2.43453 2.88008
rclavicle 1.2921e-014 1.43125e-014
rhumerus -29.1441 -13.1966 -76.6267
rradius 31.2153
rwrist -13.442
rhand -21.7753 11.976
rfingers 7.12502
rthumb 4.62574 -17.9535
lclavicle 1.2921e-014 1.43125e-014
lhumerus -38.4727 2.82292 85.5868
lradius 34.3881
lwrist 3.33882
lhand -16.1007 20.754
lfingers 7.12502
lthumb 10.103 50.4914
rfemur -9.13828 1.81894 25.2199
rtibia 30.9956
rfoot -19.793 0.028123
rtoes 14.9985
lfemur -12.6625 1.17523 -16.9381
ltibia 29.1244
lfoot -14.191 -10.2616
ltoes 17.8129
3614
root 20.1902 17.474 -21.8343 1501.62 -86.9398 -59.3217
lowerback 2.97182 0.632237 1.44597
upperback 1.39001 0.845644 2.94128
thorax -0.263502 0.398815 2.17958
lowerneck -12.3085 -1.43736 -8.58893
upperneck 37.6798 -3.16796 4.75129
head 15.5191 -2.45432 2.89958
rclavicle 3.27995e-015 3.10104e-014
rhumerus -29.4331 -13.7045 -76.6245
rradius 31.1079
rwrist -13.3905
rhand -21.9877 11.8424
rfingers 7.12502
rthumb 4.4206 -18.0915
lclavicle 3.27995e-015 3.10104e-014
lhumerus -38.4031 2.2631 85.5207
lradius 34.1191
lwrist 3.88691
lhand -16.2063 20.505
lfingers 7.12502
lthumb 10.0011 50.2474
rfemur -9.28697 1.69622 25.0675
rtibia 31.7515
rfoot -19.9114 0.11684
rtoes 15.2867
lfemur -12.4006 0.939316 -17.1036
ltibia 29.0435
lfoot -14.3646 -10.1787
ltoes 18.1428
3615
root 20.1579 17.4615 -21.8175 1503.1 -86.7318 -60.9074
lowerback 3.06167 0.535598 1.70092
upperback 1.40859 0.724059 2.95194
thorax -0.288154 0.337937 2.05064
lowerneck -12.5428 -1.3578 -8.64515
upperneck 37.859 -3.06014 4.84764
head 15.6574 -2.40949 2.97283
rclavicle -5.1684e-015 -8.74653e-015
rhumerus -29.5405 -13.678 -76.7679
rradius 30.8819
rwrist -13.2984
rhand -22.1206 11.9818
rfingers 7.12502
rthumb 4.29233 -17.9547
lclavicle -5.1684e-015 -8.74653e-015
lhumerus -38.3403 2.21403 85.3417
lradius 33.9039
lwrist 4.327
lhand -16.4621 20.4808
lfingers 7.12502
lthumb 9.75432 50.2349
rfemur -9.49931 1.65283 25.3474
rtibia 32.539
rfoot -19.7599 -0.364994
rtoes 12.5449
lfemur -12.1549 0.970957 -16.8648
ltibia 29.0192
lfoot -14.2712 -10.5202
ltoes 20.0377
3616
root 20.1248 17.4538 -21.8047 1502.83 -86.7989 -60.7592
lowerback 3.15821 0.359872 1.54429
upperback 1.45697 0.485984 2.99631
thorax -0.288679 0.217474 2.19177
lowerneck -12.7935 -1.17795 -8.85732
upperneck 37.9948 -2.72977 4.9093
head 15.7587 -2.29662 3.09611
rclavicle 3.97569e-015 -5.56597e-015
rhumerus -29.526 -13.2181 -76.9426
rradius 30.6479
rwrist -13.2813
rhand -21.8922 11.8629
rfingers 7.12502
rthumb 4.5129 -18.069
lclavicle 3.97569e-015 -5.56597e-015
lhumerus -38.3291 3.00665 84.9859
lradius 33.658
lwrist 3.94726
lhand -16.4446 20.476
lfingers 7.12502
lthumb 9.77125 50.2293
rfemur -9.75279 1.55503 25.3288
rtibia 33.4265
rfoot -19.5966 -0.857031
rtoes 9.30063
lfemur -11.8924 1.39413 -16.9283
ltibia 29.0166
lfoot -14.1502 -11.2077
ltoes 21.6791
